<svg width="18" height="18" viewBox="0 0 18 18" fill="none" xmlns="http://www.w3.org/2000/svg">
<path d="M14.8333 2.31596H13.1666V1.48263C13.1666 1.26161 13.0788 1.04965 12.9225 0.89337C12.7663 0.737089 12.5543 0.649292 12.3333 0.649292C12.1123 0.649292 11.9003 0.737089 11.744 0.89337C11.5878 1.04965 11.5 1.26161 11.5 1.48263V2.31596H6.49996V1.48263C6.49996 1.26161 6.41216 1.04965 6.25588 0.89337C6.0996 0.737089 5.88764 0.649292 5.66663 0.649292C5.44561 0.649292 5.23365 0.737089 5.07737 0.89337C4.92109 1.04965 4.83329 1.26161 4.83329 1.48263V2.31596H3.16663C2.50358 2.31596 1.8677 2.57935 1.39886 3.04819C0.930018 3.51703 0.666626 4.15292 0.666626 4.81596V14.816C0.666626 15.479 0.930018 16.1149 1.39886 16.5837C1.8677 17.0526 2.50358 17.316 3.16663 17.316H14.8333C15.4963 17.316 16.1322 17.0526 16.6011 16.5837C17.0699 16.1149 17.3333 15.479 17.3333 14.816V4.81596C17.3333 4.15292 17.0699 3.51703 16.6011 3.04819C16.1322 2.57935 15.4963 2.31596 14.8333 2.31596ZM15.6666 14.816C15.6666 15.037 15.5788 15.2489 15.4225 15.4052C15.2663 15.5615 15.0543 15.6493 14.8333 15.6493H3.16663C2.94561 15.6493 2.73365 15.5615 2.57737 15.4052C2.42109 15.2489 2.33329 15.037 2.33329 14.816V8.98263H15.6666V14.816ZM15.6666 7.31596H2.33329V4.81596C2.33329 4.59494 2.42109 4.38298 2.57737 4.2267C2.73365 4.07042 2.94561 3.98263 3.16663 3.98263H4.83329V4.81596C4.83329 5.03697 4.92109 5.24893 5.07737 5.40521C5.23365 5.56149 5.44561 5.64929 5.66663 5.64929C5.88764 5.64929 6.0996 5.56149 6.25588 5.40521C6.41216 5.24893 6.49996 5.03697 6.49996 4.81596V3.98263H11.5V4.81596C11.5 5.03697 11.5878 5.24893 11.744 5.40521C11.9003 5.56149 12.1123 5.64929 12.3333 5.64929C12.5543 5.64929 12.7663 5.56149 12.9225 5.40521C13.0788 5.24893 13.1666 5.03697 13.1666 4.81596V3.98263H14.8333C15.0543 3.98263 15.2663 4.07042 15.4225 4.2267C15.5788 4.38298 15.6666 4.59494 15.6666 4.81596V7.31596Z" fill="#006837"/>
</svg>
